<?xml version="1.0" encoding="UTF-8"?>
<svg xmlns="http://www.w3.org/2000/svg" xmlns:xlink="http://www.w3.org/1999/xlink" width="40pt" height="40pt" viewBox="0 0 40 40" version="1.1">
<g id="surface1">
<path style=" stroke:none;fill-rule:nonzero;fill:rgb(0%,0%,0%);fill-opacity:1;" d="M 29.945312 0.015625 L 10.023438 0.015625 C 4.503906 0.015625 0 4.519531 0 10.039062 L 0 29.992188 C 0 35.480469 4.503906 39.984375 10.023438 39.984375 L 29.976562 39.984375 C 35.496094 39.984375 40 35.480469 40 29.960938 L 40 10.039062 C 39.96875 4.519531 35.464844 0.015625 29.945312 0.015625 Z M 13.324219 32.371094 L 7.613281 32.371094 L 7.613281 15.875 L 13.324219 15.875 Z M 10.4375 13.339844 C 8.820312 13.339844 7.519531 12.039062 7.519531 10.421875 C 7.519531 8.800781 8.820312 7.503906 10.4375 7.503906 C 12.054688 7.503906 13.355469 8.800781 13.355469 10.421875 C 13.324219 12.039062 12.023438 13.339844 10.4375 13.339844 Z M 32.386719 32.371094 L 27.597656 32.371094 L 27.597656 24.378906 C 27.597656 22.441406 27.34375 19.96875 24.710938 19.96875 C 22.015625 19.96875 21.570312 22.0625 21.570312 24.25 L 21.570312 32.371094 L 16.8125 32.371094 L 16.8125 15.875 L 21.253906 15.875 L 21.253906 18.097656 L 21.378906 18.097656 C 22.078125 16.828125 23.695312 15.84375 26.234375 15.84375 C 31.46875 15.84375 32.386719 18.859375 32.386719 23.332031 Z M 32.386719 32.371094 "/>
</g>
</svg>
